<?xml version="1.0" standalone="no"?>
<!DOCTYPE svg PUBLIC "-//W3C//DTD SVG 20010904//EN"
 "http://www.w3.org/TR/2001/REC-SVG-20010904/DTD/svg10.dtd">
<svg version="1.0" xmlns="http://www.w3.org/2000/svg"
 width="192.000000pt" height="192.000000pt" viewBox="0 0 192.000000 192.000000"
 preserveAspectRatio="xMidYMid meet">

<g transform="translate(0.000000,192.000000) scale(0.100000,-0.100000)"
fill="#000000" stroke="none">
<path d="M0 960 l0 -960 960 0 960 0 0 960 0 960 -960 0 -960 0 0 -960z m865
320 l59 -60 -242 0 -242 0 0 60 0 60 183 0 183 0 59 -60z m517 23 c206 -97
278 -335 158 -522 -48 -74 -115 -124 -199 -151 -51 -16 -91 -20 -209 -20
l-146 0 59 60 59 60 91 0 c74 0 99 4 140 24 169 80 194 300 47 413 -54 41 -98
53 -197 53 l-81 0 -59 61 -60 61 165 -4 c161 -4 167 -4 232 -35z m-452 -328
l0 -55 -245 0 -245 0 0 55 0 55 245 0 245 0 0 -55z m0 -249 c0 -2 -26 -29 -57
-60 l-58 -56 -187 0 -188 0 0 60 0 60 245 0 c135 0 245 -2 245 -4z"/>
</g>
</svg>
